<svg width="223" height="36" viewBox="0 0 223 36" fill="none" xmlns="http://www.w3.org/2000/svg">
<g clip-path="url(#clip0_249_22959)">
<path d="M31.1155 1.41477C31.8882 0.612704 32.9376 0.162109 34.0304 0.162109C38.9469 0.162109 43.5803 0.162112 48.1431 0.162121C57.3201 0.16214 61.9156 11.679 55.4265 18.4146L41.2915 33.0863C40.6426 33.7599 39.533 33.2828 39.533 32.3302V19.4079L41.1665 17.7123C42.4643 16.3652 41.5452 14.0618 39.7097 14.0618H18.9312L31.1155 1.41477Z" fill="#003087"/>
<path d="M27.3487 32.0552C26.5761 32.8573 25.5266 33.3079 24.4339 33.3079C19.5173 33.3079 14.884 33.3079 10.3212 33.3079C1.14409 33.3078 -3.45137 21.791 3.03782 15.0554L17.1728 0.383667C17.8217 -0.289897 18.9313 0.187149 18.9313 1.13971L18.9314 14.0619L17.2978 15.7576C16 17.1048 16.9191 19.4081 18.7545 19.4081L39.5332 19.408L27.3487 32.0552Z" fill="#003087"/>
<path d="M140.441 11.2676V27.9299H145.345V11.2676H140.441Z" fill="#110051"/>
<path d="M140.783 8.49709C141.362 9.07518 142.07 9.36426 142.909 9.36426C143.747 9.36426 144.451 9.07518 145.02 8.49709C145.599 7.91894 145.889 7.21694 145.889 6.39104C145.889 5.5445 145.599 4.83733 145.02 4.26954C144.451 3.69141 143.747 3.40234 142.909 3.40234C142.07 3.40234 141.362 3.69141 140.783 4.26954C140.203 4.83733 139.913 5.5445 139.913 6.39104C139.913 7.21694 140.203 7.91894 140.783 8.49709Z" fill="#110051"/>
<path fill-rule="evenodd" clip-rule="evenodd" d="M148.112 34.4352V11.269H152.769V12.9259H152.83C153.123 12.6376 153.438 12.3743 153.778 12.1362C154.874 11.3722 156.136 10.9902 157.564 10.9902C158.816 10.9902 160.011 11.3154 161.15 11.9658C162.298 12.6162 163.23 13.5815 163.944 14.8616C164.657 16.1417 165.004 17.7367 164.983 19.6466C164.993 21.0919 164.791 22.3514 164.378 23.4251C163.964 24.4884 163.405 25.3711 162.702 26.0731C161.998 26.7751 161.212 27.3016 160.342 27.6526C159.474 28.0036 158.594 28.1791 157.704 28.1791C156.296 28.1791 155.034 27.7868 153.917 27.0022C153.636 26.8021 153.369 26.5853 153.118 26.3518H153.017V34.4352H148.112ZM156.555 24.0909C157.28 24.0806 157.916 23.8897 158.465 23.518C159.013 23.1463 159.443 22.6198 159.753 21.9385C160.063 21.2571 160.214 20.4622 160.203 19.5537C160.214 18.6246 160.058 17.8297 159.738 17.1689C159.427 16.4979 158.988 15.9868 158.418 15.6358C157.849 15.2746 157.197 15.099 156.463 15.1093C155.769 15.099 155.148 15.2694 154.6 15.6204C154.051 15.9714 153.617 16.4824 153.296 17.1534C152.976 17.8142 152.815 18.6142 152.815 19.5537C152.815 20.4622 152.976 21.2571 153.296 21.9385C153.627 22.6198 154.072 23.1463 154.631 23.518C155.19 23.8897 155.831 24.0806 156.555 24.0909Z" fill="#110051"/>
<path d="M169.706 27.6684C170.616 28.0091 171.568 28.1794 172.561 28.1794C173.7 28.1794 174.739 27.9575 175.681 27.5136C176.633 27.0697 177.393 26.4502 177.962 25.6553C178.542 24.8501 178.831 23.9261 178.831 22.8834C178.831 22.0575 178.656 21.3607 178.304 20.7929C177.962 20.2251 177.527 19.7605 177 19.3992C176.482 19.0378 175.95 18.7539 175.402 18.5475C174.853 18.3307 174.372 18.1655 173.958 18.0519C173.42 17.8971 172.903 17.7371 172.406 17.5719C171.91 17.4067 171.5 17.2106 171.18 16.9834C170.859 16.7563 170.699 16.4569 170.699 16.0852C170.699 15.7137 170.859 15.4039 171.18 15.1562C171.5 14.9084 171.904 14.7845 172.391 14.7845C172.97 14.7845 173.446 14.9393 173.818 15.2491C174.202 15.5587 174.49 15.8788 174.688 16.2092L178.459 14.5832C177.983 13.5095 177.176 12.6475 176.038 11.9971C174.91 11.3467 173.637 11.0215 172.22 11.0215C171.082 11.0215 170.067 11.2332 169.178 11.6564C168.298 12.0797 167.6 12.6682 167.082 13.4217C166.575 14.1651 166.322 15.0271 166.322 16.0078C166.322 16.937 166.539 17.7267 166.974 18.3772C167.409 19.0275 167.973 19.5643 168.666 19.9877C169.369 20.4006 170.114 20.7257 170.901 20.9632C171.242 21.0562 171.615 21.1593 172.018 21.2729C172.432 21.3865 172.825 21.5207 173.198 21.6756C173.57 21.8304 173.875 22.0162 174.113 22.233C174.351 22.4498 174.47 22.7079 174.47 23.0073C174.47 23.2447 174.388 23.4667 174.222 23.6732C174.067 23.8797 173.849 24.05 173.57 24.1842C173.29 24.3081 172.965 24.37 172.592 24.37C171.889 24.37 171.278 24.1532 170.76 23.7197C170.243 23.286 169.856 22.8267 169.597 22.3414L165.748 24.0293C166.099 24.8656 166.622 25.5985 167.315 26.2282C168.008 26.8477 168.805 27.3277 169.706 27.6684Z" fill="#110051"/>
<path d="M198.768 27.9316V11.2693H203.439V13.3908H203.525C203.89 12.8839 204.301 12.4555 204.759 12.1055C205.69 11.3828 206.792 11.0215 208.065 11.0215C209.12 11.0215 210.015 11.2796 210.75 11.7958C211.316 12.1806 211.778 12.6967 212.136 13.3443H212.223C212.752 12.6718 213.394 12.1452 214.148 11.7648C215.131 11.2693 216.202 11.0215 217.361 11.0215C218.468 11.0215 219.379 11.2177 220.093 11.61C220.807 11.9919 221.365 12.4978 221.769 13.1276C222.172 13.747 222.457 14.4283 222.622 15.1717C222.789 15.9046 222.871 16.6169 222.871 17.3087V27.9316H217.935V17.9126C217.935 17.0041 217.744 16.3072 217.361 15.822C216.989 15.3265 216.44 15.0787 215.716 15.0787C215.24 15.0787 214.816 15.1872 214.443 15.4039C214.082 15.6104 213.792 15.9252 213.575 16.3485C213.367 16.7718 213.264 17.2931 213.264 17.9126V27.9316H208.36V17.9126C208.36 17.0041 208.168 16.3072 207.785 15.822C207.402 15.3265 206.849 15.0787 206.125 15.0787C205.421 15.0787 204.837 15.3213 204.371 15.8066C203.905 16.2814 203.672 16.9937 203.672 17.9436V27.9316H198.768Z" fill="#110051"/>
<path d="M186.766 28.1777C185.618 28.1777 184.573 27.9351 183.632 27.4499C182.69 26.9543 181.94 26.2317 181.381 25.2819C180.833 24.3218 180.558 23.1397 180.558 21.7357V11.2676H185.462V21.0853C185.462 22.0454 185.711 22.7784 186.207 23.2842C186.714 23.7798 187.331 24.0276 188.055 24.0276C188.593 24.0276 189.064 23.9088 189.467 23.6714C189.881 23.434 190.201 23.0985 190.429 22.6648C190.667 22.2209 190.786 21.6944 190.786 21.0853V11.2676H195.69V22.0919C195.69 22.6907 195.779 23.1242 195.954 23.3927C196.131 23.6611 196.487 23.8934 197.025 24.0895L195.287 28.1777C194.056 27.8577 193.156 27.4396 192.587 26.9234C192.3 26.6633 192.083 26.3639 191.935 26.0252H191.811C191.377 26.4599 190.896 26.8471 190.368 27.1867C189.322 27.8473 188.122 28.1777 186.766 28.1777Z" fill="#110051"/>
<path fill-rule="evenodd" clip-rule="evenodd" d="M129.821 28.1794C128.217 28.1794 126.753 27.813 125.429 27.08C124.114 26.347 123.064 25.3352 122.278 24.0448C121.502 22.7543 121.114 21.2677 121.114 19.585C121.114 17.9022 121.502 16.4157 122.278 15.1252C123.064 13.8347 124.114 12.8282 125.429 12.1055C126.753 11.3828 128.217 11.0215 129.821 11.0215C131.456 11.0215 132.93 11.3828 134.245 12.1055C135.558 12.8282 136.598 13.8347 137.364 15.1252C138.14 16.4157 138.527 17.9022 138.527 19.585C138.527 21.2677 138.14 22.7543 137.364 24.0448C136.598 25.3352 135.553 26.347 134.229 27.08C132.915 27.813 131.446 28.1794 129.821 28.1794ZM129.821 23.9983C130.586 23.9983 131.275 23.8126 131.885 23.4409C132.496 23.0692 132.977 22.5531 133.328 21.8923C133.68 21.2317 133.856 20.4625 133.856 19.585C133.856 18.7385 133.686 17.9848 133.344 17.3241C133.003 16.6634 132.532 16.1472 131.932 15.7756C131.331 15.3936 130.638 15.2026 129.852 15.2026C129.076 15.2026 128.377 15.3884 127.757 15.7601C127.146 16.1214 126.665 16.6324 126.313 17.2932C125.962 17.9538 125.786 18.7178 125.786 19.585C125.786 20.4625 125.962 21.2317 126.313 21.8923C126.675 22.5531 127.162 23.0692 127.773 23.4409C128.383 23.8126 129.065 23.9983 129.821 23.9983Z" fill="#110051"/>
<path fill-rule="evenodd" clip-rule="evenodd" d="M106.598 34.1721C107.757 34.5128 109.03 34.6831 110.416 34.6831C111.71 34.6831 112.894 34.5179 113.971 34.1876C115.046 33.8676 115.978 33.3824 116.764 32.7319C117.56 32.0816 118.176 31.2764 118.611 30.3162C119.045 29.3561 119.262 28.2412 119.262 26.9714V11.2536H114.808V12.8795H114.716C114.419 12.5964 114.098 12.3384 113.753 12.1053C112.677 11.3723 111.42 11.0059 109.982 11.0059C108.74 11.0059 107.545 11.3207 106.396 11.9504C105.248 12.5699 104.306 13.499 103.571 14.7379C102.847 15.9664 102.485 17.5097 102.485 19.368C102.485 20.7617 102.697 21.9747 103.121 23.0071C103.546 24.0394 104.109 24.9014 104.813 25.5932C105.528 26.2745 106.318 26.7855 107.188 27.1262C108.057 27.4566 108.931 27.6218 109.81 27.6218C111.229 27.6218 112.491 27.2346 113.598 26.4604C113.948 26.2121 114.275 25.9385 114.579 25.6396H114.653V27.2501C114.653 28.045 114.395 28.6851 113.877 29.1703C113.36 29.6659 112.734 30.0272 112 30.2543C111.265 30.4814 110.555 30.5949 109.873 30.5949C109.076 30.5949 108.29 30.4659 107.514 30.2079C106.748 29.96 106.075 29.6607 105.497 29.3097L103.882 33.1501C104.544 33.5011 105.45 33.8418 106.598 34.1721ZM112.993 23.0845C112.424 23.4562 111.767 23.6419 111.022 23.6419C110.287 23.6419 109.64 23.4562 109.081 23.0845C108.523 22.7025 108.083 22.1812 107.763 21.5204C107.442 20.8494 107.281 20.0804 107.281 19.2131C107.281 18.3459 107.442 17.5923 107.763 16.9523C108.093 16.3122 108.548 15.8218 109.128 15.4811C109.708 15.1301 110.364 14.9546 111.099 14.9546C111.833 14.9546 112.481 15.1249 113.039 15.4656C113.598 15.8064 114.037 16.2967 114.358 16.9368C114.679 17.5665 114.839 18.3253 114.839 19.2131C114.839 20.0906 114.674 20.8649 114.343 21.5359C114.012 22.1967 113.561 22.7129 112.993 23.0845Z" fill="#110051"/>
<path fill-rule="evenodd" clip-rule="evenodd" d="M92.5327 28.1794C90.9291 28.1794 89.465 27.813 88.1404 27.08C86.8266 26.347 85.7759 25.3352 84.99 24.0448C84.2141 22.7543 83.8257 21.2677 83.8257 19.585C83.8257 17.9022 84.2141 16.4157 84.99 15.1252C85.7759 13.8347 86.8266 12.8282 88.1404 12.1055C89.465 11.3828 90.9291 11.0215 92.5327 11.0215C94.1672 11.0215 95.6422 11.3828 96.956 12.1055C98.2697 12.8282 99.3096 13.8347 100.075 15.1252C100.851 16.4157 101.24 17.9022 101.24 19.585C101.24 21.2677 100.851 22.7543 100.075 24.0448C99.3096 25.3352 98.2647 26.347 96.9401 27.08C95.6263 27.813 94.1572 28.1794 92.5327 28.1794ZM92.5327 23.9983C93.2986 23.9983 93.986 23.8126 94.5965 23.4409C95.207 23.0692 95.6881 22.5531 96.0406 21.8923C96.3922 21.2317 96.5676 20.4625 96.5676 19.585C96.5676 18.7385 96.3972 17.9848 96.0556 17.3241C95.714 16.6634 95.2438 16.1472 94.6433 15.7756C94.0436 15.3936 93.3495 15.2026 92.5636 15.2026C91.7877 15.2026 91.0895 15.3884 90.4681 15.7601C89.8575 16.1214 89.3765 16.6324 89.0248 17.2932C88.6732 17.9538 88.497 18.7178 88.497 19.585C88.497 20.4625 88.6732 21.2317 89.0248 21.8923C89.3873 22.5531 89.8734 23.0692 90.4839 23.4409C91.0945 23.8126 91.7768 23.9983 92.5327 23.9983Z" fill="#110051"/>
<path d="M70.5669 5.10547V27.9311H83.8991V23.4093H75.6576V5.10547H70.5669Z" fill="#110051"/>
</g>
<defs>
<clipPath id="clip0_249_22959">
<rect width="223" height="35" fill="white" transform="translate(0 0.0683594)"/>
</clipPath>
</defs>
</svg>
